<mxfile host="app.diagrams.net" modified="2021-12-20T20:13:54.053Z" agent="5.0 (Windows NT 10.0; Win64; x64) AppleWebKit/537.36 (KHTML, like Gecko) Chrome/96.0.4664.110 Safari/537.36" etag="X1NQkhdCA8wlwj2N_tmJ" version="15.7.0" type="github">
  <diagram id="bsCOeCJd2JvCUoFlJV8z" name="Page-1">
    <mxGraphModel dx="1564" dy="920" grid="1" gridSize="10" guides="1" tooltips="1" connect="1" arrows="1" fold="1" page="1" pageScale="1" pageWidth="827" pageHeight="1169" math="0" shadow="0">
      <root>
        <mxCell id="0" />
        <mxCell id="1" parent="0" />
        <mxCell id="pbB7BSJ25sKXfuNgXTw6-3" style="edgeStyle=orthogonalEdgeStyle;rounded=0;orthogonalLoop=1;jettySize=auto;html=1;entryX=0.5;entryY=0;entryDx=0;entryDy=0;" parent="1" source="pbB7BSJ25sKXfuNgXTw6-1" target="pbB7BSJ25sKXfuNgXTw6-2" edge="1">
          <mxGeometry relative="1" as="geometry" />
        </mxCell>
        <mxCell id="pbB7BSJ25sKXfuNgXTw6-1" value="Input" style="ellipse;whiteSpace=wrap;html=1;" parent="1" vertex="1">
          <mxGeometry x="219" y="20" width="120" height="70" as="geometry" />
        </mxCell>
        <mxCell id="OPKnmsIDtJbLCiZTottz-5" value="" style="edgeStyle=orthogonalEdgeStyle;rounded=0;orthogonalLoop=1;jettySize=auto;html=1;" edge="1" parent="1" source="pbB7BSJ25sKXfuNgXTw6-2" target="OPKnmsIDtJbLCiZTottz-2">
          <mxGeometry relative="1" as="geometry" />
        </mxCell>
        <mxCell id="pbB7BSJ25sKXfuNgXTw6-2" value="Nhập các trang &lt;br&gt;as T[](int)&lt;br&gt;số khung trang &lt;br&gt;as n(int)" style="shape=parallelogram;perimeter=parallelogramPerimeter;whiteSpace=wrap;html=1;fixedSize=1;" parent="1" vertex="1">
          <mxGeometry x="194" y="120" width="170" height="70" as="geometry" />
        </mxCell>
        <mxCell id="pbB7BSJ25sKXfuNgXTw6-8" value="" style="edgeStyle=orthogonalEdgeStyle;rounded=0;orthogonalLoop=1;jettySize=auto;html=1;" parent="1" source="pbB7BSJ25sKXfuNgXTw6-4" target="pbB7BSJ25sKXfuNgXTw6-7" edge="1">
          <mxGeometry relative="1" as="geometry" />
        </mxCell>
        <mxCell id="pbB7BSJ25sKXfuNgXTw6-4" value="Đếm sô lần trang ở trong khung thứ i &lt;br&gt;as CountK[i](int)&lt;br&gt;Khung trang thứ i &lt;br&gt;as K[i](int)&amp;nbsp;" style="whiteSpace=wrap;html=1;" parent="1" vertex="1">
          <mxGeometry x="194" y="260" width="170" height="70" as="geometry" />
        </mxCell>
        <mxCell id="pbB7BSJ25sKXfuNgXTw6-29" value="" style="edgeStyle=orthogonalEdgeStyle;rounded=0;orthogonalLoop=1;jettySize=auto;html=1;" parent="1" source="pbB7BSJ25sKXfuNgXTw6-7" target="pbB7BSJ25sKXfuNgXTw6-28" edge="1">
          <mxGeometry relative="1" as="geometry" />
        </mxCell>
        <mxCell id="pbB7BSJ25sKXfuNgXTw6-7" value="T[i] != K[0-&amp;gt;n]" style="rhombus;whiteSpace=wrap;html=1;" parent="1" vertex="1">
          <mxGeometry x="174" y="390" width="210" height="120" as="geometry" />
        </mxCell>
        <mxCell id="pbB7BSJ25sKXfuNgXTw6-19" style="edgeStyle=orthogonalEdgeStyle;rounded=0;orthogonalLoop=1;jettySize=auto;html=1;entryX=0.5;entryY=1;entryDx=0;entryDy=0;" parent="1" source="pbB7BSJ25sKXfuNgXTw6-10" target="pbB7BSJ25sKXfuNgXTw6-15" edge="1">
          <mxGeometry relative="1" as="geometry">
            <mxPoint x="615" y="530" as="targetPoint" />
            <Array as="points">
              <mxPoint x="720" y="520" />
              <mxPoint x="515" y="520" />
            </Array>
          </mxGeometry>
        </mxCell>
        <mxCell id="pbB7BSJ25sKXfuNgXTw6-24" value="" style="edgeStyle=orthogonalEdgeStyle;rounded=0;orthogonalLoop=1;jettySize=auto;html=1;" parent="1" source="pbB7BSJ25sKXfuNgXTw6-10" target="pbB7BSJ25sKXfuNgXTw6-23" edge="1">
          <mxGeometry relative="1" as="geometry" />
        </mxCell>
        <mxCell id="pbB7BSJ25sKXfuNgXTw6-10" value="CountK[j] = Max(CountK[0-&amp;gt;n])" style="rhombus;whiteSpace=wrap;html=1;" parent="1" vertex="1">
          <mxGeometry x="615" y="390" width="210" height="120" as="geometry" />
        </mxCell>
        <mxCell id="pbB7BSJ25sKXfuNgXTw6-16" value="" style="edgeStyle=orthogonalEdgeStyle;rounded=0;orthogonalLoop=1;jettySize=auto;html=1;" parent="1" target="pbB7BSJ25sKXfuNgXTw6-15" edge="1">
          <mxGeometry relative="1" as="geometry">
            <mxPoint x="385" y="450" as="sourcePoint" />
          </mxGeometry>
        </mxCell>
        <mxCell id="pbB7BSJ25sKXfuNgXTw6-12" value="Đ" style="text;html=1;align=center;verticalAlign=middle;resizable=0;points=[];autosize=1;strokeColor=none;fillColor=none;" parent="1" vertex="1">
          <mxGeometry x="395" y="430" width="20" height="20" as="geometry" />
        </mxCell>
        <mxCell id="pbB7BSJ25sKXfuNgXTw6-17" style="edgeStyle=orthogonalEdgeStyle;rounded=0;orthogonalLoop=1;jettySize=auto;html=1;entryX=0;entryY=0.5;entryDx=0;entryDy=0;" parent="1" source="pbB7BSJ25sKXfuNgXTw6-15" target="pbB7BSJ25sKXfuNgXTw6-10" edge="1">
          <mxGeometry relative="1" as="geometry" />
        </mxCell>
        <mxCell id="pbB7BSJ25sKXfuNgXTw6-15" value="j++" style="whiteSpace=wrap;html=1;" parent="1" vertex="1">
          <mxGeometry x="455" y="420" width="120" height="60" as="geometry" />
        </mxCell>
        <mxCell id="pbB7BSJ25sKXfuNgXTw6-20" value="S" style="text;html=1;align=center;verticalAlign=middle;resizable=0;points=[];autosize=1;strokeColor=none;fillColor=none;" parent="1" vertex="1">
          <mxGeometry x="675" y="530" width="20" height="20" as="geometry" />
        </mxCell>
        <mxCell id="pbB7BSJ25sKXfuNgXTw6-26" style="edgeStyle=orthogonalEdgeStyle;rounded=0;orthogonalLoop=1;jettySize=auto;html=1;entryX=1;entryY=0.5;entryDx=0;entryDy=0;" parent="1" source="pbB7BSJ25sKXfuNgXTw6-23" target="pbB7BSJ25sKXfuNgXTw6-4" edge="1">
          <mxGeometry relative="1" as="geometry" />
        </mxCell>
        <mxCell id="pbB7BSJ25sKXfuNgXTw6-23" value="K[j]=T[i]&lt;br&gt;CountK[0-&amp;gt;n]++;&lt;br&gt;i++;" style="whiteSpace=wrap;html=1;" parent="1" vertex="1">
          <mxGeometry x="660" y="265" width="120" height="60" as="geometry" />
        </mxCell>
        <mxCell id="pbB7BSJ25sKXfuNgXTw6-25" value="Đ" style="text;html=1;align=center;verticalAlign=middle;resizable=0;points=[];autosize=1;strokeColor=none;fillColor=none;" parent="1" vertex="1">
          <mxGeometry x="725" y="370" width="20" height="20" as="geometry" />
        </mxCell>
        <mxCell id="pbB7BSJ25sKXfuNgXTw6-33" value="" style="edgeStyle=orthogonalEdgeStyle;rounded=0;orthogonalLoop=1;jettySize=auto;html=1;" parent="1" source="pbB7BSJ25sKXfuNgXTw6-28" target="pbB7BSJ25sKXfuNgXTw6-32" edge="1">
          <mxGeometry relative="1" as="geometry" />
        </mxCell>
        <mxCell id="pbB7BSJ25sKXfuNgXTw6-35" value="" style="edgeStyle=orthogonalEdgeStyle;rounded=0;orthogonalLoop=1;jettySize=auto;html=1;" parent="1" source="pbB7BSJ25sKXfuNgXTw6-28" target="pbB7BSJ25sKXfuNgXTw6-34" edge="1">
          <mxGeometry relative="1" as="geometry" />
        </mxCell>
        <mxCell id="pbB7BSJ25sKXfuNgXTw6-28" value="i = max" style="rhombus;whiteSpace=wrap;html=1;" parent="1" vertex="1">
          <mxGeometry x="174" y="590" width="210" height="120" as="geometry" />
        </mxCell>
        <mxCell id="pbB7BSJ25sKXfuNgXTw6-31" value="S" style="text;html=1;align=center;verticalAlign=middle;resizable=0;points=[];autosize=1;strokeColor=none;fillColor=none;" parent="1" vertex="1">
          <mxGeometry x="145" y="620" width="20" height="20" as="geometry" />
        </mxCell>
        <mxCell id="pbB7BSJ25sKXfuNgXTw6-32" value="End" style="ellipse;whiteSpace=wrap;html=1;" parent="1" vertex="1">
          <mxGeometry x="219" y="820" width="120" height="60" as="geometry" />
        </mxCell>
        <mxCell id="pbB7BSJ25sKXfuNgXTw6-36" style="edgeStyle=orthogonalEdgeStyle;rounded=0;orthogonalLoop=1;jettySize=auto;html=1;entryX=0;entryY=0.5;entryDx=0;entryDy=0;" parent="1" source="pbB7BSJ25sKXfuNgXTw6-34" target="pbB7BSJ25sKXfuNgXTw6-4" edge="1">
          <mxGeometry relative="1" as="geometry">
            <mxPoint x="65" y="300" as="targetPoint" />
            <Array as="points">
              <mxPoint x="65" y="295" />
            </Array>
          </mxGeometry>
        </mxCell>
        <mxCell id="pbB7BSJ25sKXfuNgXTw6-34" value="i++" style="whiteSpace=wrap;html=1;" parent="1" vertex="1">
          <mxGeometry x="5" y="620" width="120" height="60" as="geometry" />
        </mxCell>
        <mxCell id="pbB7BSJ25sKXfuNgXTw6-37" value="Đ" style="text;html=1;align=center;verticalAlign=middle;resizable=0;points=[];autosize=1;strokeColor=none;fillColor=none;" parent="1" vertex="1">
          <mxGeometry x="280" y="710" width="20" height="20" as="geometry" />
        </mxCell>
        <mxCell id="OPKnmsIDtJbLCiZTottz-1" value="S" style="text;html=1;align=center;verticalAlign=middle;resizable=0;points=[];autosize=1;strokeColor=none;fillColor=none;" vertex="1" parent="1">
          <mxGeometry x="280" y="510" width="20" height="20" as="geometry" />
        </mxCell>
        <mxCell id="OPKnmsIDtJbLCiZTottz-4" value="" style="edgeStyle=orthogonalEdgeStyle;rounded=0;orthogonalLoop=1;jettySize=auto;html=1;" edge="1" parent="1" source="OPKnmsIDtJbLCiZTottz-2" target="pbB7BSJ25sKXfuNgXTw6-4">
          <mxGeometry relative="1" as="geometry" />
        </mxCell>
        <mxCell id="OPKnmsIDtJbLCiZTottz-2" value="i = 0" style="rounded=0;whiteSpace=wrap;html=1;" vertex="1" parent="1">
          <mxGeometry x="219" y="210" width="120" height="30" as="geometry" />
        </mxCell>
        <mxCell id="OPKnmsIDtJbLCiZTottz-6" value="&lt;b&gt;&lt;font style=&quot;font-size: 50px&quot;&gt;FIFO&lt;/font&gt;&lt;/b&gt;" style="text;html=1;align=center;verticalAlign=middle;resizable=0;points=[];autosize=1;strokeColor=none;fillColor=none;" vertex="1" parent="1">
          <mxGeometry x="485" y="55" width="130" height="30" as="geometry" />
        </mxCell>
      </root>
    </mxGraphModel>
  </diagram>
</mxfile>
